<svg xmlns="http://www.w3.org/2000/svg" viewBox="0 0 1396 493" role="img" aria-label="Decker Tape Products">
    <title>logo</title>
    <style type="text/css">
      .st0{fill:#FEFDFD;}
      .st1{fill:#D1242B;}
      .st2{fill:#262223;}
    </style>
    <g>
    <path class="st0" d="M24,1c456.17,0,912.33,0.01,1368.5-0.09c3.75,0,4.61,0.84,4.6,4.59c-0.15,43.5-0.1,87-0.1,130.5
      c-1.65-0.09-3.31-0.12-4.96-0.29c-26.47-2.69-48.67,4.92-64.79,27c-5.33,7.3-9.19,15.41-12.4,23.84c-0.47,1.22-0.31,2.98-2.47,3.8
      c0-14.87-0.12-29.46,0.08-44.05c0.05-3.54-0.99-4.41-4.45-4.39c-25,0.15-50,0.2-75-0.04c-4.39-0.04-5.06,1.36-5.04,5.32
      c0.17,30.16,0.09,60.33,0.09,90.5c0,2.07,0,4.13,0,6.2c-1.13-1.83-1.56-3.73-2.03-5.62c-11.26-45.32-36.6-78.92-81.54-94.88
      c-33.9-12.04-68.37-11.74-102.29,0.63c-29,10.57-51.51,29.31-65.5,56.98c-19.05,37.65-20.05,76.64-6.28,116.25
      c0.7,2.01,2.39,3.89,1.2,6.59c-18.48-28.22-36.75-56.21-55.18-84.1c-1.83-2.77-1.57-4.34,0.61-6.71
      c26.44-28.66,52.77-57.43,79.12-86.17c1.27-1.39,2.45-2.87,3.92-4.61c-1.14-0.14-1.61-0.24-2.08-0.24
      c-34.17-0.01-68.33,0.05-102.5-0.11c-3.08-0.01-4.43,1.55-6,3.53c-17.43,21.9-34.87,43.79-52.35,65.65
      c-1.09,1.36-1.87,3.08-4.09,4.04c0-1.88,0-3.49,0-5.09c0-51.5-0.04-103,0.09-154.49c0.01-3.73-0.9-4.68-4.65-4.66
      c-27.83,0.17-55.66,0.15-83.5,0.02c-3.54-0.02-4.83,0.6-4.83,4.56c0.12,108.33,0.11,216.66,0.02,324.99c0,3.65,0.8,4.79,4.65,4.77
      c28-0.18,56-0.17,84-0.01c3.65,0.02,4.33-1.15,4.3-4.51c-0.15-19.83-0.09-39.66-0.06-59.5c0-1.78-0.58-3.77,1.02-5.2
      c5.8-5.2,11.64-10.36,17.32-15.4c15.1,26.16,30.93,53.53,46.65,80.96c1.49,2.61,3.11,3.65,6.22,3.64
      c34.33-0.13,68.66-0.07,103-0.11c1.18,0,2.65,0.68,3.72-0.92c-6.56-10.16-13.14-20.35-19.71-30.53c0.31-0.29,0.61-0.57,0.92-0.86
      c10.4,10.21,21.7,19.24,35.11,25.15c44.21,19.5,89.02,18.78,133.63,2.09c30.16-11.28,51.05-32.4,61.13-63.54
      c1.21-3.75,0.72-4.7-3.41-4.67c-26.66,0.18-53.31,0.15-79.97,0.01c-3.1-0.02-4.64,1.04-6.16,3.64
      c-5.12,8.76-12.82,14.26-22.71,16.61c-27.58,6.55-54.6-14.48-55.78-43.15c-0.19-4.61,2.52-3.68,5.04-3.68
      c54.65-0.01,109.3,0.04,163.94-0.11c4.25-0.01,5.16,1.22,5.14,5.27c-0.17,29.99-0.04,59.98-0.17,89.97
      c-0.01,3.46,0.47,4.88,4.49,4.85c27.99-0.2,55.98-0.19,83.97,0c3.94,0.03,4.57-1.26,4.55-4.8c-0.14-26.82-0.05-53.65-0.09-80.47
      c-0.02-10.19,0.77-20.3,3.12-30.23c4.41-18.69,14.41-32.33,33.93-37.33c13.08-3.35,26.07-2.42,39.04,0.63
      c0,85.64-0.02,171.28,0.08,256.92c0,3.25-0.42,4.18-4,4.18C930.38,493.99,467.69,494,4.99,494.09c-3.43,0-4.5-0.65-4.07-4.11
      C1.29,487.03,1,484,1,481c15.22,0.68,30.37-0.39,45.25-3.39c85.62-17.26,145.81-66.15,180.85-146.11c0.54-1.22,0.39-3.05,2.26-3.46
      c16.85,27.51,32.01,42.01,57.27,52.02c45.81,18.14,91.63,16.37,136.38-3.42c26.34-11.65,44.19-31.95,53.23-59.69
      c1.48-4.54,0.36-5.17-3.93-5.14c-26.16,0.17-52.33,0.13-78.49,0.02c-3.28-0.01-5.31,0.66-7.12,3.83
      c-4.95,8.63-12.63,14.01-22.31,16.36c-27.51,6.66-53.15-12.93-55.82-42.4c-0.34-3.75,0.78-4.46,4.22-4.45
      c52.49,0.09,104.98,0.08,157.48,0c3.13,0,4.47,0.49,5.05,4.1c8.03,49.57,36.29,81.91,84.26,96.24c32.52,9.72,65.54,9.09,98.09-0.18
      c44.63-12.71,70.7-42.33,78.07-88.25c0.99-6.15,1-6.15-5.44-6.15c-27.16,0-54.33,0.1-81.49-0.1c-4.34-0.03-6.14,0.76-7.1,5.54
      c-2.88,14.36-9.76,25.95-25.31,29.61c-19.09,4.51-35.15-3.6-43.31-21.6c-4.4-9.71-6.13-20.04-6.55-30.57
      c-0.74-18.59-0.07-37.07,8.42-54.18c7.46-15.02,21.98-22.12,38.11-19.23c15.22,2.72,24.87,13.45,27.07,30.37
      c0.38,2.94,1.12,4.23,4.51,4.21c28.66-0.16,57.32-0.15,85.99-0.01c3.53,0.02,3.98-1.03,3.57-4.26
      c-4.73-37.61-23.3-65.87-58.05-81.41c-42.17-18.86-85.61-19.87-128.71-3.04c-30.29,11.83-51.55,33.62-63.73,63.93
      c-2.26,5.61-4.02,11.43-6.06,17.3c-17.62-51.77-52.43-83.46-106.82-90.76c-52.5-7.05-97.83,7.05-132.07,50.52
      c-2.4-8.8-4.4-17.17-7.49-25.19C197.3,73.85,134.06,20.84,40.92,3.74C35.29,2.71,29.43,3.17,24,1z M355.2,442.2
      c-0.19-0.2-0.39-0.39-0.59-0.59c-0.28-1.09,0.76-3.1-0.21-3.17c-4.96-0.31-9.95-0.22-14.92-0.04c-0.44,0.02-1.04,1.59-1.21,2.51
      c-3.34,17.24-6.63,34.48-10.01,52.17c5.15,0,9.95-0.15,14.75,0.06c2.55,0.11,3.52-0.87,3.91-3.25c0.73-4.5,1.69-8.95,2.69-14.12
      c3.81,3.85,7.83,4.77,12.32,4.51c15.13-0.89,26.79-15.99,23.74-30.86c-1.52-7.4-6.51-11.69-14.24-12.35
      C365.29,436.54,360.08,438.84,355.2,442.2z M488.56,479.18c10,0,10,0,11.91-9.02c1.76-8.35,1.77-8.27,10.51-8.4
      c3.48-0.05,6.98-0.33,10.42-0.84c3.62-0.54,7.05-1.8,10.21-3.75c7.6-4.71,12.15-14.7,10.28-22.68
      c-1.51-6.43-8.24-10.95-18.14-11.33c-10.13-0.39-20.3,0.04-30.43-0.29c-3.51-0.12-4.4,1.32-4.95,4.29
      c-2.63,14.03-5.4,28.04-8.14,42.05C478.26,479.18,478.25,479.18,488.56,479.18z M670.48,474.03c-1.18,4.35-0.16,5.6,3.04,5.21
      c2.46-0.31,5.02-0.31,7.49,0c3.66,0.46,5.17-0.88,5.81-4.57c2.23-12.78,4.84-25.49,7.23-38.25c0.81-4.35,3.98-10.7,1.72-12.58
      c-2.8-2.33-8.86-0.6-13.49-0.94c-3.06-0.22-3.97,1.03-4.37,3.87c-0.69,4.92-1.85,9.77-2.89,15.03c-6.37-5.75-13.2-5.94-20.3-3.04
      c-10.03,4.09-16.69,15.83-15.89,27.65c0.51,7.55,5.29,12.63,12.8,13.65C658.21,480.95,664.22,479.81,670.48,474.03z M236.18,479.17
      c6.26,0,12.21-0.06,18.17,0.03c2.42,0.04,2.45-1.52,2.77-3.23c1.94-10.28,4-20.53,5.95-30.8c1.39-7.31,1.34-7.32,8.92-7.32
      c11.43,0,11.32-0.02,13.05-11.41c0.46-3-0.39-3.57-3.21-3.54c-13.8,0.13-27.61,0.06-41.41,0.06c-12.22,0-12.14,0.01-14.03,12.05
      c-0.37,2.34,0.14,2.94,2.37,2.87c3.82-0.12,7.66,0.12,11.47-0.08c2.98-0.15,4.01,0.27,3.26,3.78
      C240.84,453.88,238.64,466.29,236.18,479.17z M323.34,479.17c-1.63-2.89-1.45-5.27-0.94-7.78c1.44-7.16,2.87-14.33,3.99-21.55
      c0.94-6.05-1.04-9.53-6.66-11.08c-10.69-2.95-21.4-2.59-31.8,1.4c-3.84,1.47-6.73,4.26-8.02,8.36c-0.25,0.81-1.02,2.49,0.47,2.26
      c5.94-0.92,12.49,2.85,17.9-2.39c1.95-1.89,4.65-1.57,7.14-1.3c1.56,0.17,3.02,0.87,3.12,2.64c0.09,1.48-1.04,2.53-2.34,2.9
      c-2.22,0.63-4.52,1.05-6.81,1.4c-6.86,1.06-14,1.01-20.13,4.95c-4.79,3.08-6.92,7.63-6.17,13.21c0.65,4.85,4.43,6.96,8.71,7.67
      c6.14,1.01,12.21,0.56,18.11-1.9c1.6-0.67,4.58-5.4,5.44,0.84c0.03,0.23,1.5,0.36,2.3,0.36
      C312.62,479.19,317.6,479.17,323.34,479.17z M728.2,474.25c-2.11,5.18,0.81,5.03,3.81,4.94c2.66-0.08,5.35-0.24,7.98,0.04
      c3.11,0.33,4.39-0.85,4.92-3.87c1.6-9.16,3.46-18.28,5.16-27.42c1.82-9.83,1.79-9.83-8.15-9.83c-7.74,0-7.75,0-9.26,7.39
      c-0.73,3.58-1.37,7.18-2.11,10.76c-0.61,2.92-1.01,5.96-2.87,8.42c-2.28,3.01-5.38,3.92-8.86,2.5c-3.26-1.33-2.66-4.15-2.15-6.83
      c0.53-2.78,1.12-5.55,1.47-8.34c0.58-4.59,4.43-10.65,1.37-13.26c-2.81-2.4-9.22-0.55-14.04-0.65c-1.49-0.03-2.54,0.22-2.84,1.94
      c-1.66,9.48-4.55,18.78-4.92,28.44c-0.27,7.09,3.77,11.07,10.84,11.72C715.57,480.84,722.06,479.58,728.2,474.25z M1021.32,444.24
      c1.85-5.72-0.29-6.56-3.97-6.18c-2.3,0.24-4.72,0.38-6.97-0.03c-3.94-0.72-4.73,1.49-5.28,4.57c-1.42,8.01-3.03,15.99-4.5,24
      c-0.74,4.03-3.25,9.54-1.54,11.76c2,2.6,7.81,0.28,11.89,0.89c4.47,0.68,5.58-1.43,6.2-5.32c1.01-6.38,2.32-12.75,4.06-18.97
      c1.13-4.01,5.55-6.03,9.21-4.79c4.08,1.39,3.45,4.63,2.82,7.87c-1.34,6.9-2.57,13.83-3.92,21.12c5.57,0,10.55-0.05,15.52,0.03
      c1.6,0.02,2.55-0.52,2.8-2.11c1.45-9.18,4.26-18.16,4.7-27.48c0.33-6.97-3.01-10.82-9.91-12.19
      C1034.91,435.94,1028.34,438.15,1021.32,444.24z M441.19,466.65c-7.48,1.26-14.4-1.91-20.83,2.84c-2.54,1.88-6.13,1.32-8.9-0.81
      c-1.53-1.17-2.52-2.91-2.16-4.77c0.46-2.39,2.68-1.43,4.15-1.45c8.82-0.09,17.63-0.04,26.45-0.04c1.82,0,3.53,0.27,4.06-2.41
      c1.41-7.07-1.79-15.35-7.76-19.27c-15.01-9.83-39.48-0.37-43.85,16.95c-2.58,10.21,1.61,18.2,11.25,21.27
      c6.18,1.97,12.52,1.78,18.76,0.6C430.02,478.1,436.69,474.84,441.19,466.65z M602.87,480.31c16.16-0.08,27.1-8.34,29.78-22.48
      c1.45-7.68-1.49-14.26-7.96-17.78c-11.04-6.01-29.13-3.09-37.33,6.34c-5.91,6.79-8.76,14.84-5.37,23.54
      c3.33,8.54,11.26,9.99,19.39,10.37C601.87,480.31,602.37,480.29,602.87,480.31z M860.79,466.37c-0.67,0-1.36-0.12-2,0.02
      c-2.25,0.5-5.66-1.5-6.59,1.35c-1.1,3.35,0.87,6.51,3.74,8.63c1.45,1.07,3.12,2.07,4.84,2.49c9.6,2.33,19.12,2.21,28.41-1.54
      c2.34-0.95,4.41-2.34,6.15-4.18c6.45-6.86,4.71-15-4.11-18.01c-4.38-1.5-9.05-2.15-13.53-3.38c-1.46-0.4-3.73-0.58-3.56-2.79
      c0.17-2.24,2.25-2.63,4.11-2.85c2.07-0.24,4.37-0.15,5.21,1.98c0.86,2.16,2.3,1.94,3.93,1.93c2.5-0.02,5.02,0.19,7.49-0.07
      c1.78-0.18,4.38,1.34,5.19-1.16c0.72-2.22-0.21-4.58-1.83-6.47c-1.45-1.69-3.25-2.85-5.36-3.49c-9.43-2.88-18.77-2.59-27.79,1.41
      c-5.78,2.56-9.51,8.37-8.85,13.31c0.86,6.41,6.15,7.68,11.16,9.08c2.24,0.62,4.57,0.91,6.84,1.4c1.3,0.28,2.59,0.61,3.86,1
      c1.33,0.41,2.6,1.13,2.48,2.69c-0.1,1.38-1.04,2.51-2.39,2.97c-2.59,0.87-6.3,1.71-7.44-0.56
      C868.32,465.25,864.47,466.55,860.79,466.37z M1100.92,453.98c1.5,0,2.99,0,4.49,0c5.34-0.01,6.14-0.94,4.45-6.03
      c-2.22-6.68-7.74-9.06-14.09-10.29c-16.56-3.21-31.98,4.84-36.18,18.97c-2.49,8.36-0.52,15.48,5.45,19.68
      c10.76,7.57,32.17,4.45,40.17-5.92c1.5-1.95,3.83-4.26,2.86-6.5c-0.74-1.7-3.89-0.45-5.96-0.66c-0.99-0.1-2,0.01-2.99-0.02
      c-4.25-0.14-8.03-0.38-11.19,4.04c-2.88,4.02-9.98,2.42-10.88-1.94c-1.13-5.47,0.03-10.7,3.97-14.82
      c3.83-4.01,9.07-3.12,10.99,1.79c0.57,1.45,1.21,1.7,2.42,1.7C1096.6,453.97,1098.76,453.97,1100.92,453.98z M797.82,453.98
      c1,0,2.01,0.1,2.99-0.02c2.07-0.26,5.06,1.15,6.03-0.75c1.27-2.5,0.21-5.57-1.35-8.04c-3.09-4.92-8.03-6.64-13.41-7.64
      c-16.21-3-31.63,5.26-35.65,19.17c-3.4,11.74,1.81,20.75,13.78,23c7.08,1.33,14.23,0.98,21.13-1.59c4.65-1.73,8.56-4.43,11.37-8.53
      c1.19-1.73,3.3-3.78,2.23-5.72c-0.91-1.66-3.64-0.44-5.55-0.61c-1.49-0.13-2.99-0.05-4.49-0.02c-3.68,0.08-7.32-0.73-9.78,3.78
      c-1.61,2.96-5.52,2.91-8.61,1.62c-2.9-1.21-3.23-4.11-3-6.81c0.34-4,1.13-7.95,4.02-11.02c3.96-4.21,9.4-3.56,11.39,1.52
      c0.58,1.47,1.21,1.68,2.41,1.67C793.5,453.97,795.66,453.97,797.82,453.98z M841.2,437.82c0.17-0.92,0.3-1.7,0.44-2.47
      c1.88-9.88,1.88-9.88-8.06-9.88c-7.82,0-8.09-0.04-9.22,7.52c-0.57,3.79-1.67,5.16-5.76,5.31c-4.23,0.16-2.31,4.73-3.27,7.23
      c-1.05,2.77,1.64,2.2,3.08,2.13c2.41-0.11,2.74,0.86,2.29,2.99c-1.28,6.17-2.62,12.35-3.51,18.58c-0.96,6.73,1.14,9.21,7.84,9.91
      c2.96,0.31,5.97,0.47,8.95,0.36c8.15-0.29,8.87-1.14,9.23-9.52c0.06-1.28,0.32-2.48-1.45-2.38c-6.77,0.38-6.14-3.56-4.89-8.08
      c0.62-2.23,1.05-4.55,1.21-6.85c0.27-3.82,1.86-5.67,5.9-5c2.31,0.39,3.85,0,4.43-3.06c1.19-6.37,1.47-6.31-5.05-6.53
      C842.72,438.07,842.08,437.93,841.2,437.82z M966.09,479.18c5.71,0,11.17-0.13,16.62,0.05c2.83,0.1,3.93-0.68,4.48-3.69
      c2.98-16.33,6.22-32.6,9.5-48.87c0.54-2.67,0.39-3.96-2.86-3.77c-4.47,0.25-8.99,0.26-13.46-0.01c-2.81-0.17-3.71,1.01-4.17,3.49
      C972.92,443.81,969.54,461.22,966.09,479.18z M541.04,479.18c4,0,7.86-0.44,11.57,0.1c5.44,0.79,7.28-1.54,7.61-6.57
      c0.22-3.28,1.11-6.55,1.95-9.76c1.37-5.24,4.53-9.84,10.11-9.4c6.79,0.53,7.4-3.16,7.85-7.95c0.09-0.98,0.47-1.93,0.67-2.91
      c1.15-5.88,0.4-6.48-5.54-5.24c-4.09,0.85-7.07,3.55-10.99,6.5c2.79-6.44-0.9-5.97-4.33-5.86c-2.49,0.08-5.01,0.21-7.48-0.04
      c-2.73-0.28-3.8,0.85-4.27,3.41C545.91,453.86,543.5,466.24,541.04,479.18z M917.56,463.02c-9.04,0-9.05,0-10.88,8.93
      c-0.3,1.46-0.42,2.97-0.88,4.38c-0.7,2.18-0.08,2.86,2.21,2.93c1.63,0.05,4.33-1.26,4.74,0.9c0.41,2.16-2.03,3.59-3.98,4.57
      c-1.17,0.58-2.61,0.65-3.74,1.28c-2.42,1.36-2.33,4.08-1.96,6.1c0.34,1.83,2.53,0.68,3.83,0.43c11.04-2.07,15.78-7.52,18.06-20.58
      C926.53,463.02,926.53,463.02,917.56,463.02z M1124.91,479.18c9.11,0,9.11,0,10.34-6.09c2.03-10.06,2.03-10.06-8.33-10.06
      c-7.8,0-7.8,0-9.34,7.27C1115.7,479.18,1115.7,479.18,1124.91,479.18z"/>
    <path class="st1" d="M991.3,353.62c6.57,10.18,13.15,20.37,19.71,30.53c-1.07,1.6-2.53,0.92-3.72,0.92
      c-34.33,0.04-68.66-0.01-103,0.11c-3.11,0.01-4.72-1.03-6.22-3.64c-15.72-27.43-31.55-54.79-46.65-80.96
      c-5.67,5.04-11.51,10.2-17.32,15.4c-1.6,1.43-1.02,3.42-1.02,5.2c-0.03,19.83-0.1,39.67,0.06,59.5c0.03,3.36-0.65,4.53-4.3,4.51
      c-28-0.16-56-0.17-84,0.01c-3.85,0.02-4.65-1.12-4.65-4.77c0.1-108.33,0.1-216.66-0.02-324.99c0-3.96,1.29-4.58,4.83-4.56
      c27.83,0.14,55.66,0.16,83.5-0.02c3.75-0.02,4.66,0.93,4.65,4.66c-0.13,51.5-0.09,103-0.09,154.49c0,1.61,0,3.21,0,5.09
      c2.22-0.96,3-2.68,4.09-4.04c17.48-21.86,34.92-43.75,52.35-65.65c1.57-1.97,2.92-3.54,6-3.53c34.16,0.15,68.33,0.1,102.5,0.11
      c0.47,0,0.94,0.11,2.08,0.24c-1.48,1.74-2.65,3.22-3.92,4.61c-26.35,28.75-52.68,57.51-79.12,86.17c-2.18,2.36-2.44,3.94-0.61,6.71
      c18.42,27.89,36.69,55.88,55.18,84.1c1.19-2.7-0.5-4.59-1.2-6.59c-13.77-39.61-12.77-78.6,6.28-116.25
      c13.99-27.66,36.51-46.4,65.5-56.98c33.93-12.37,68.39-12.67,102.29-0.63c44.94,15.96,70.29,49.57,81.54,94.88
      c0.47,1.89,0.9,3.79,2.03,5.62c0-2.07,0-4.13,0-6.2c0-30.17,0.07-60.33-0.09-90.5c-0.02-3.95,0.65-5.36,5.04-5.32
      c25,0.24,50,0.18,75,0.04c3.45-0.02,4.5,0.85,4.45,4.39c-0.2,14.59-0.08,29.18-0.08,44.05c2.16-0.83,2-2.58,2.47-3.8
      c3.22-8.43,7.07-16.54,12.4-23.84c16.12-22.08,38.32-29.69,64.79-27c1.65,0.17,3.31,0.19,4.96,0.29c0,32.33,0,64.67,0,97
      c-12.97-3.05-25.96-3.98-39.04-0.63c-19.52,5-29.52,18.64-33.93,37.33c-2.34,9.94-3.13,20.04-3.12,30.23
      c0.04,26.82-0.05,53.65,0.09,80.47c0.02,3.55-0.61,4.83-4.55,4.8c-27.99-0.19-55.98-0.19-83.97,0c-4.02,0.03-4.51-1.39-4.49-4.85
      c0.12-29.99-0.01-59.98,0.17-89.97c0.02-4.06-0.89-5.29-5.14-5.27c-54.65,0.15-109.3,0.1-163.94,0.11c-2.52,0-5.23-0.93-5.04,3.68
      c1.18,28.67,28.2,49.7,55.78,43.15c9.89-2.35,17.59-7.85,22.71-16.61c1.52-2.61,3.06-3.66,6.16-3.64
      c26.66,0.14,53.32,0.17,79.97-0.01c4.14-0.03,4.63,0.93,3.41,4.67c-10.08,31.14-30.97,52.26-61.13,63.54
      c-44.61,16.69-89.42,17.41-133.63-2.09c-13.41-5.91-24.71-14.94-35.11-25.15c-0.48-0.76-1.09-1.06-1.93-0.53
      C990.62,352.7,990.96,353.16,991.3,353.62z M1096.03,236.11c11.15,0,22.29,0,33.44,0c9.9,0,9.9,0,7.44-9.87
      c-5.03-20.12-23.77-33.61-44.65-32.13c-21.89,1.54-35.39,14.53-38.01,36.39c-0.47,3.9-0.19,5.94,4.85,5.76
      C1071.4,235.81,1083.72,236.11,1096.03,236.11z"/>
    <path class="st1" d="M24,1c5.43,2.17,11.29,1.71,16.92,2.74c93.14,17.11,156.38,70.11,190.35,158.32
      c3.09,8.02,5.09,16.39,7.49,25.19c34.23-43.47,79.57-57.57,132.07-50.52c54.39,7.3,89.19,38.99,106.82,90.76
      c2.04-5.87,3.8-11.69,6.06-17.3c12.18-30.31,33.44-52.1,63.73-63.93c43.1-16.84,86.54-15.82,128.71,3.04
      c34.76,15.54,53.33,43.8,58.05,81.41c0.41,3.23-0.04,4.28-3.57,4.26c-28.66-0.14-57.32-0.15-85.99,0.01
      c-3.39,0.02-4.13-1.27-4.51-4.21c-2.2-16.92-11.85-27.65-27.07-30.37c-16.13-2.88-30.65,4.22-38.11,19.23
      c-8.49,17.1-9.16,35.59-8.42,54.18c0.42,10.53,2.15,20.86,6.55,30.57c8.16,18.01,24.22,26.11,43.31,21.6
      c15.54-3.67,22.42-15.26,25.31-29.61c0.96-4.78,2.76-5.57,7.1-5.54c27.16,0.2,54.32,0.1,81.49,0.1c6.44,0,6.43,0,5.44,6.15
      c-7.38,45.91-33.45,75.54-78.07,88.25c-32.56,9.27-65.57,9.9-98.09,0.18c-47.97-14.34-76.23-46.67-84.26-96.24
      c-0.58-3.61-1.92-4.11-5.05-4.1c-52.49,0.08-104.98,0.08-157.48,0c-3.44-0.01-4.56,0.7-4.22,4.45
      c2.67,29.47,28.31,49.06,55.82,42.4c9.68-2.35,17.36-7.73,22.31-16.36c1.81-3.17,3.84-3.84,7.12-3.83
      c26.16,0.11,52.33,0.14,78.49-0.02c4.29-0.03,5.41,0.6,3.93,5.14c-9.04,27.73-26.89,48.04-53.23,59.69
      c-44.75,19.79-90.57,21.56-136.38,3.42c-25.26-10-40.42-24.5-57.27-52.02c-1.87,0.41-1.73,2.24-2.26,3.46
      c-35.04,79.97-95.23,128.86-180.85,146.11c-14.87,3-30.03,4.07-45.25,3.39c0-9.67,0-19.33,0-29c14.88,0.49,29.59-0.97,44.2-3.81
      c140.36-27.31,214.28-185.52,143.4-309.63C147.59,66.74,83.83,31.12,1,30c0-8.75,0.09-17.5-0.06-26.25C0.9,1.49,1.27,0.84,3.7,0.92
      C10.46,1.15,17.23,1,24,1z M350.61,236.11c12.48,0,24.96-0.17,37.43,0.1c3.98,0.09,4.58-1.07,4.18-4.79
      c-2.27-21.08-21.29-37.81-42.84-37.41c-23.98,0.45-39.21,14.78-40.84,38.2c-0.22,3.13,0.5,4.01,3.64,3.97
      C324.98,236.02,337.79,236.11,350.61,236.11z"/>
    <path class="st1" d="M1,69c0-9.67,0-19.33,0-29c14,0.19,27.9,1.24,41.71,3.84c106.43,19.99,178.46,123.82,160.08,230.87
      C185.95,372.74,100.46,443.62,1,442c0-9.67,0-19.33,0-29c10.69,0.36,21.31-0.48,31.84-2.22C122.89,395.91,186.44,311.9,175,221.22
      c-8.12-64.39-43.1-110.05-101.7-137.51C50.48,73.01,26.06,69.17,1,69z"/>
    <path class="st1" d="M1,109c0-9.67,0-19.33,0-29c11.18-0.1,22.25,0.84,33.27,2.84c89.46,16.23,148.39,106.54,127.07,194.85
      C143.29,352.46,78.61,402.61,1,402c0-9.67,0-19.33,0-29c9.52,0.27,18.97-0.49,28.31-2.29c54.31-10.45,96.78-54.14,105.55-108.47
      c8.73-54.14-16.97-107.92-64.67-135.48C48.76,114.38,25.56,109.07,1,109z"/>
    <path class="st0" d="M1,328c0-58,0-116,0-174c4.32,0.05,8.68-0.25,12.97,0.2c35.36,3.72,65.45,29.29,74.94,63.53
      c9.56,34.47-2.84,71.5-31.53,92.99C40.74,323.18,22.06,329.64,1,328z"/>
    <path class="st1" d="M1,328c21.06,1.64,39.74-4.82,56.38-17.29c28.68-21.49,41.09-58.51,31.53-92.99
      c-9.49-34.24-39.57-59.81-74.94-63.53C9.68,153.75,5.32,154.05,1,154c0-11,0-22,0-33c7-0.89,13.94-0.13,20.87,0.82
      c80.79,10.98,127.98,100.45,90.49,173.16C89.3,339.68,51.29,361.53,1,362C1,350.67,1,339.33,1,328z"/>
    <path class="st0" d="M1,442c99.46,1.62,184.95-69.26,201.79-167.29C221.17,167.65,149.14,63.82,42.71,43.84
      C28.9,41.24,15,40.19,1,40c0-3.33,0-6.67,0-10c82.83,1.12,146.59,36.74,187.6,108.56c70.88,124.11-3.04,282.32-143.4,309.63
      c-14.61,2.84-29.31,4.3-44.2,3.81C1,448.67,1,445.33,1,442z"/>
    <path class="st0" d="M1,402c77.61,0.61,142.29-49.54,160.34-124.32c21.31-88.3-37.61-178.62-127.07-194.85
      C23.25,80.84,12.18,79.9,1,80c0-3.67,0-7.33,0-11c25.06,0.17,49.48,4.01,72.3,14.71c58.6,27.47,93.58,73.12,101.7,137.51
      c11.43,90.67-52.11,174.68-142.16,189.56C22.31,412.52,11.69,413.36,1,413C1,409.33,1,405.67,1,402z"/>
    <path class="st0" d="M1,362c50.29-0.47,88.3-22.32,111.36-67.03c37.49-72.71-9.7-162.18-90.49-173.16C14.94,120.87,8,120.11,1,121
      c0-4,0-8,0-12c24.56,0.07,47.76,5.38,69.19,17.76c47.69,27.56,73.4,81.34,64.67,135.48c-8.77,54.33-51.24,98.02-105.55,108.47
      c-9.34,1.8-18.79,2.56-28.31,2.29C1,369.33,1,365.67,1,362z"/>
    <path class="st2" d="M488.56,479.18c-10.31,0-10.3,0-8.35-9.98c2.74-14.01,5.52-28.02,8.14-42.05c0.56-2.97,1.44-4.4,4.95-4.29
      c10.14,0.33,20.3-0.09,30.43,0.29c9.9,0.38,16.63,4.89,18.14,11.33c1.87,7.98-2.68,17.97-10.28,22.68
      c-3.16,1.96-6.59,3.21-10.21,3.75c-3.44,0.51-6.94,0.79-10.42,0.84c-8.74,0.13-8.74,0.06-10.51,8.4
      C498.56,479.18,498.56,479.18,488.56,479.18z M509.33,448.68c3.99-0.2,7.02-0.03,9.7-1.65c3.62-2.19,4.67-7.12,1.79-9.11
      c-3.8-2.62-8.39-2.42-12.49-1.63c-2.76,0.53-1.71,4.42-2.56,6.73C504.07,447.63,505.34,449.61,509.33,448.68z"/>
    <path class="st2" d="M670.48,474.03c-6.26,5.78-12.27,6.92-18.84,6.03c-7.5-1.02-12.28-6.1-12.8-13.65
      c-0.8-11.82,5.86-23.56,15.89-27.65c7.1-2.9,13.93-2.71,20.3,3.04c1.04-5.26,2.2-10.11,2.89-15.03c0.4-2.84,1.31-4.09,4.37-3.87
      c4.63,0.34,10.69-1.39,13.49,0.94c2.26,1.88-0.91,8.23-1.72,12.58c-2.39,12.75-5,25.47-7.23,38.25c-0.64,3.68-2.14,5.02-5.81,4.57
      c-2.46-0.31-5.02-0.3-7.49,0C670.31,479.63,669.29,478.38,670.48,474.03z M656.91,462.3c0.01,5.1,2.76,7.22,7.75,5.97
      c5.88-1.47,10.01-10.54,7.16-15.76c-1.07-1.95-2.82-2.63-4.97-2.7C661.13,449.63,656.89,454.93,656.91,462.3z"/>
    <path class="st2" d="M355.2,442.2c4.89-3.36,10.09-5.65,16.23-5.13c7.74,0.66,12.73,4.94,14.24,12.35
      c3.05,14.87-8.61,29.97-23.74,30.86c-4.5,0.26-8.52-0.66-12.32-4.51c-1,5.16-1.96,9.62-2.69,14.12c-0.39,2.38-1.35,3.36-3.91,3.25
      c-4.79-0.21-9.6-0.06-14.75-0.06c3.38-17.69,6.67-34.93,10.01-52.17c0.18-0.92,0.77-2.49,1.21-2.51c4.97-0.18,9.96-0.27,14.92,0.04
      c0.97,0.06-0.07,2.08,0.21,3.17c-0.08,0.41-0.34,1.08-0.2,1.17C354.98,443.16,355.04,442.56,355.2,442.2z M358.08,467.92
      c5.21,0.02,9.62-5.38,9.73-11.91c0.07-4.22-2.3-6.88-6.14-6.9c-4.92-0.02-9.23,5.32-9.42,11.66
      C352.12,465.19,354.34,467.91,358.08,467.92z"/>
    <path class="st2" d="M236.18,479.17c2.47-12.88,4.67-25.28,7.31-37.59c0.75-3.5-0.28-3.93-3.26-3.78
      c-3.82,0.2-7.65-0.04-11.47,0.08c-2.23,0.07-2.74-0.53-2.37-2.87c1.89-12.04,1.81-12.05,14.03-12.05c13.8,0,27.61,0.07,41.41-0.06
      c2.82-0.03,3.67,0.54,3.21,3.54c-1.73,11.39-1.63,11.41-13.05,11.41c-7.58,0-7.53,0.01-8.92,7.32c-1.95,10.27-4.01,20.53-5.95,30.8
      c-0.32,1.71-0.35,3.27-2.77,3.23C248.39,479.11,242.43,479.17,236.18,479.17z"/>
    <path class="st2" d="M323.34,479.17c-5.74,0-10.72,0.02-15.7-0.02c-0.8-0.01-2.27-0.13-2.3-0.36c-0.86-6.24-3.84-1.51-5.44-0.84
      c-5.9,2.46-11.97,2.91-18.11,1.9c-4.28-0.7-8.06-2.82-8.71-7.67c-0.75-5.58,1.38-10.14,6.17-13.21c6.13-3.93,13.27-3.88,20.13-4.95
      c2.29-0.36,4.58-0.77,6.81-1.4c1.3-0.37,2.43-1.43,2.34-2.9c-0.11-1.77-1.57-2.47-3.12-2.64c-2.49-0.27-5.19-0.59-7.14,1.3
      c-5.41,5.25-11.96,1.48-17.9,2.39c-1.49,0.23-0.72-1.46-0.47-2.26c1.28-4.1,4.18-6.88,8.02-8.36c10.4-3.99,21.11-4.34,31.8-1.4
      c5.63,1.55,7.6,5.03,6.66,11.08c-1.12,7.22-2.55,14.39-3.99,21.55C321.89,473.9,321.71,476.28,323.34,479.17z M296.71,471.04
      c2.82,0.12,5.22-0.85,7.01-3c1.37-1.65,3.12-3.85,2.05-5.7c-0.88-1.53-3.26,0.07-4.95,0.4c-1.77,0.35-3.55,0.71-5.28,1.23
      c-2.23,0.67-4.05,2.04-3.59,4.58C292.4,471.03,294.73,470.93,296.71,471.04z"/>
    <path class="st2" d="M728.2,474.25c-6.14,5.33-12.63,6.59-19.67,5.94c-7.07-0.65-11.11-4.63-10.84-11.72
      c0.37-9.66,3.26-18.96,4.92-28.44c0.3-1.72,1.35-1.97,2.84-1.94c4.82,0.1,11.22-1.75,14.04,0.65c3.06,2.61-0.79,8.67-1.37,13.26
      c-0.35,2.8-0.94,5.57-1.47,8.34c-0.51,2.68-1.11,5.51,2.15,6.83c3.48,1.41,6.58,0.5,8.86-2.5c1.86-2.46,2.27-5.49,2.87-8.42
      c0.74-3.58,1.39-7.18,2.11-10.76c1.5-7.39,1.51-7.39,9.26-7.39c9.94,0,9.97,0.01,8.15,9.83c-1.7,9.15-3.56,18.26-5.16,27.42
      c-0.53,3.02-1.81,4.2-4.92,3.87c-2.63-0.28-5.32-0.12-7.98-0.04C729.01,479.28,726.09,479.43,728.2,474.25z"/>
    <path class="st2" d="M1021.32,444.24c7.03-6.1,13.59-8.3,21.1-6.81c6.9,1.37,10.24,5.21,9.91,12.19
      c-0.45,9.32-3.26,18.29-4.7,27.48c-0.25,1.58-1.2,2.13-2.8,2.11c-4.97-0.07-9.95-0.03-15.52-0.03c1.35-7.3,2.58-14.22,3.92-21.12
      c0.63-3.24,1.26-6.48-2.82-7.87c-3.66-1.25-8.08,0.77-9.21,4.79c-1.74,6.22-3.05,12.59-4.06,18.97c-0.62,3.89-1.73,6-6.2,5.32
      c-4.07-0.62-9.89,1.7-11.89-0.89c-1.71-2.22,0.8-7.73,1.54-11.76c1.47-8,3.08-15.98,4.5-24c0.55-3.08,1.35-5.29,5.28-4.57
      c2.25,0.41,4.67,0.27,6.97,0.03C1021.03,437.68,1023.16,438.52,1021.32,444.24z"/>
    <path class="st2" d="M441.19,466.65c-4.5,8.19-11.16,11.45-18.84,12.91c-6.24,1.18-12.58,1.37-18.76-0.6
      c-9.64-3.07-13.83-11.06-11.25-21.27c4.38-17.33,28.84-26.78,43.85-16.95c5.97,3.91,9.17,12.19,7.76,19.27
      c-0.53,2.68-2.24,2.41-4.06,2.41c-8.82,0-17.63-0.04-26.45,0.04c-1.47,0.01-3.69-0.94-4.15,1.45c-0.36,1.87,0.63,3.6,2.16,4.77
      c2.78,2.12,6.36,2.69,8.9,0.81C426.78,464.73,433.7,467.91,441.19,466.65z M411.15,453.79c0.84,0.1,1.32,0.21,1.79,0.21
      c3.46,0.02,6.93,0.12,10.39-0.04c1.26-0.06,3.23,1,3.66-1.17c0.35-1.75-0.72-3.17-2.06-4.25
      C420.67,445.15,414.08,447.47,411.15,453.79z"/>
    <path class="st2" d="M602.87,480.3c-0.5-0.01-1,0.01-1.5-0.01c-8.12-0.38-16.06-1.83-19.39-10.37c-3.39-8.71-0.54-16.75,5.37-23.54
      c8.21-9.43,26.3-12.35,37.33-6.34c6.47,3.52,9.42,10.1,7.96,17.78C629.97,471.97,619.03,480.23,602.87,480.3z M598.89,461.47
      c-0.11,3.09-0.01,6.3,3.54,7.39c3.87,1.18,7.22-0.03,9.47-3.54c1.82-2.84,2.72-6.05,2.94-9.37c0.21-3.1-0.33-6.15-3.64-7.47
      c-3.1-1.23-5.94-0.09-8.16,2.14C600.1,453.57,599.01,457.37,598.89,461.47z"/>
    <path class="st2" d="M860.79,466.37c3.68,0.18,7.53-1.12,9.95,3.73c1.14,2.27,4.85,1.44,7.44,0.56c1.34-0.45,2.29-1.59,2.39-2.97
      c0.11-1.56-1.15-2.28-2.48-2.69c-1.27-0.39-2.56-0.72-3.86-1c-2.28-0.49-4.61-0.77-6.84-1.4c-5.01-1.4-10.3-2.66-11.16-9.08
      c-0.66-4.95,3.07-10.75,8.85-13.31c9.03-4,18.36-4.29,27.79-1.41c2.11,0.64,3.91,1.8,5.36,3.49c1.63,1.89,2.55,4.25,1.83,6.47
      c-0.81,2.49-3.41,0.97-5.19,1.16c-2.47,0.26-4.99,0.05-7.49,0.07c-1.63,0.01-3.07,0.24-3.93-1.93c-0.84-2.13-3.14-2.22-5.21-1.98
      c-1.86,0.22-3.94,0.61-4.11,2.85c-0.17,2.21,2.1,2.38,3.56,2.79c4.48,1.23,9.15,1.88,13.53,3.38c8.81,3.01,10.56,11.15,4.11,18.01
      c-1.74,1.85-3.8,3.24-6.15,4.18c-9.29,3.75-18.81,3.87-28.41,1.54c-1.72-0.42-3.39-1.42-4.84-2.49c-2.87-2.12-4.83-5.27-3.74-8.63
      c0.93-2.86,4.34-0.85,6.59-1.35C859.43,466.25,860.13,466.37,860.79,466.37z"/>
    <path class="st2" d="M1100.92,453.97c-2.16,0-4.33-0.01-6.49,0c-1.21,0-1.85-0.25-2.42-1.7c-1.92-4.91-7.16-5.8-10.99-1.79
      c-3.93,4.12-5.1,9.35-3.97,14.82c0.9,4.36,7.99,5.96,10.88,1.94c3.16-4.41,6.94-4.17,11.19-4.04c1,0.03,2.01-0.08,2.99,0.02
      c2.07,0.21,5.22-1.04,5.96,0.66c0.97,2.24-1.36,4.55-2.86,6.5c-7.99,10.37-29.4,13.49-40.17,5.92c-5.97-4.2-7.94-11.32-5.45-19.68
      c4.2-14.13,19.62-22.18,36.18-18.97c6.35,1.23,11.87,3.61,14.09,10.29c1.69,5.09,0.89,6.02-4.45,6.03
      C1103.92,453.98,1102.42,453.98,1100.92,453.97z"/>
    <path class="st2" d="M797.82,453.97c-2.16,0-4.32-0.01-6.49,0c-1.21,0.01-1.84-0.2-2.41-1.67c-1.99-5.08-7.43-5.73-11.39-1.52
      c-2.89,3.07-3.68,7.03-4.02,11.02c-0.23,2.71,0.1,5.61,3,6.81c3.09,1.29,7.01,1.33,8.61-1.62c2.45-4.51,6.09-3.7,9.78-3.78
      c1.5-0.03,3-0.11,4.49,0.02c1.91,0.17,4.64-1.04,5.55,0.61c1.07,1.94-1.05,3.99-2.23,5.72c-2.81,4.09-6.73,6.8-11.37,8.53
      c-6.9,2.57-14.05,2.92-21.13,1.59c-11.96-2.25-17.18-11.26-13.78-23c4.02-13.9,19.45-22.17,35.65-19.17
      c5.38,1,10.32,2.72,13.41,7.64c1.55,2.48,2.61,5.54,1.35,8.04c-0.97,1.91-3.96,0.49-6.03,0.75
      C799.83,454.08,798.82,453.98,797.82,453.97z"/>
    <path class="st2" d="M841.2,437.82c0.88,0.11,1.52,0.25,2.17,0.27c6.51,0.22,6.24,0.16,5.05,6.53c-0.57,3.06-2.11,3.45-4.43,3.06
      c-4.04-0.67-5.64,1.17-5.9,5c-0.16,2.3-0.59,4.62-1.21,6.85c-1.25,4.52-1.89,8.45,4.89,8.08c1.77-0.1,1.51,1.1,1.45,2.38
      c-0.37,8.38-1.08,9.23-9.23,9.52c-2.98,0.11-5.98-0.05-8.95-0.36c-6.71-0.7-8.8-3.18-7.84-9.91c0.89-6.23,2.23-12.41,3.51-18.58
      c0.44-2.13,0.11-3.1-2.29-2.99c-1.43,0.07-4.13,0.64-3.08-2.13c0.95-2.49-0.96-7.07,3.27-7.23c4.09-0.15,5.2-1.52,5.76-5.31
      c1.13-7.57,1.4-7.52,9.22-7.52c9.94,0,9.94,0,8.06,9.88C841.49,436.12,841.36,436.9,841.2,437.82z"/>
    <path class="st2" d="M966.09,479.18c3.45-17.96,6.82-35.37,10.11-52.8c0.47-2.48,1.37-3.66,4.17-3.49
      c4.47,0.27,8.99,0.26,13.46,0.01c3.25-0.19,3.4,1.1,2.86,3.77c-3.28,16.27-6.52,32.55-9.5,48.87c-0.55,3.01-1.65,3.79-4.48,3.69
      C977.27,479.04,971.81,479.18,966.09,479.18z"/>
    <path class="st2" d="M541.04,479.18c2.47-12.94,4.87-25.31,7.15-37.72c0.47-2.56,1.54-3.69,4.27-3.41
      c2.47,0.25,4.99,0.12,7.48,0.04c3.44-0.11,7.13-0.58,4.33,5.86c3.91-2.94,6.9-5.64,10.99-6.5c5.94-1.24,6.69-0.64,5.54,5.24
      c-0.19,0.98-0.57,1.93-0.67,2.91c-0.45,4.79-1.06,8.48-7.85,7.95c-5.58-0.44-8.73,4.16-10.11,9.4c-0.84,3.21-1.73,6.47-1.95,9.76
      c-0.34,5.02-2.17,7.36-7.61,6.57C548.9,478.74,545.04,479.18,541.04,479.18z M564.38,444.26c-0.05,0.1-0.17,0.23-0.14,0.31
      c0.16,0.44,0.37,0.44,0.56,0.02c0.03-0.07-0.05-0.24-0.13-0.31C564.61,444.23,564.48,444.27,564.38,444.26z"/>
    <path class="st2" d="M917.56,463.02c8.97,0,8.97,0,7.41,8.94c-2.28,13.06-7.03,18.51-18.06,20.58c-1.3,0.24-3.49,1.4-3.83-0.43
      c-0.37-2.02-0.46-4.73,1.96-6.1c1.13-0.64,2.57-0.7,3.74-1.28c1.95-0.97,4.39-2.41,3.98-4.57c-0.41-2.16-3.12-0.85-4.74-0.9
      c-2.29-0.07-2.91-0.75-2.21-2.93c0.45-1.41,0.58-2.92,0.88-4.38C908.51,463.02,908.51,463.02,917.56,463.02z"/>
    <path class="st2" d="M1124.91,479.18c-9.21,0-9.21,0-7.33-8.88c1.54-7.27,1.54-7.27,9.34-7.27c10.36,0,10.36,0,8.33,10.06
      C1134.02,479.18,1134.02,479.18,1124.91,479.18z"/>
    <path class="st0" d="M1096.03,236.11c-12.31,0-24.63-0.3-36.93,0.14c-5.04,0.18-5.32-1.85-4.85-5.76
      c2.62-21.87,16.12-34.85,38.01-36.39c20.88-1.47,39.62,12.01,44.65,32.13c2.46,9.87,2.46,9.87-7.44,9.87
      C1118.32,236.11,1107.18,236.11,1096.03,236.11z"/>
    <path class="st0" d="M991.3,353.62c-0.34-0.46-0.67-0.92-1.01-1.39c0.84-0.53,1.44-0.23,1.93,0.53
      C991.91,353.05,991.6,353.34,991.3,353.62z"/>
    <path class="st0" d="M350.61,236.11c-12.81,0-25.62-0.09-38.43,0.07c-3.14,0.04-3.85-0.85-3.64-3.97
      c1.63-23.42,16.86-37.75,40.84-38.2c21.55-0.4,40.57,16.34,42.84,37.41c0.4,3.72-0.2,4.88-4.18,4.79
      C375.57,235.94,363.08,236.11,350.61,236.11z"/>
    <path class="st0" d="M509.33,448.68c-3.99,0.93-5.26-1.05-3.57-5.66c0.85-2.32-0.2-6.2,2.56-6.73c4.1-0.79,8.69-0.99,12.49,1.63
      c2.88,1.99,1.83,6.92-1.79,9.11C516.35,448.65,513.32,448.48,509.33,448.68z"/>
    <path class="st0" d="M656.91,462.3c-0.02-7.37,4.22-12.66,9.93-12.49c2.15,0.07,3.9,0.75,4.97,2.7c2.85,5.22-1.28,14.29-7.16,15.76
      C659.67,469.51,656.92,467.39,656.91,462.3z"/>
    <path class="st0" d="M358.08,467.92c-3.74-0.02-5.96-2.74-5.83-7.15c0.19-6.35,4.5-11.69,9.42-11.66c3.85,0.02,6.22,2.68,6.14,6.9
      C367.7,462.55,363.28,467.95,358.08,467.92z"/>
    <path class="st0" d="M355.2,442.2c-0.15,0.37-0.22,0.97-0.79,0.58c-0.13-0.09,0.13-0.76,0.2-1.17C354.8,441.8,355,442,355.2,442.2z
      "/>
    <path class="st0" d="M296.71,471.04c-1.97-0.11-4.31-0.01-4.76-2.5c-0.45-2.54,1.36-3.91,3.59-4.58c1.73-0.52,3.51-0.88,5.28-1.23
      c1.69-0.33,4.07-1.93,4.95-0.4c1.07,1.85-0.68,4.05-2.05,5.7C301.93,470.19,299.53,471.16,296.71,471.04z"/>
    <path class="st0" d="M411.15,453.79c2.93-6.32,9.52-8.65,13.79-5.24c1.35,1.08,2.41,2.5,2.06,4.25c-0.44,2.18-2.4,1.12-3.66,1.17
      c-3.46,0.15-6.93,0.05-10.39,0.04C412.46,454,411.99,453.9,411.15,453.79z"/>
    <path class="st0" d="M598.89,461.47c0.12-4.1,1.21-7.9,4.16-10.85c2.23-2.23,5.06-3.37,8.16-2.14c3.31,1.31,3.85,4.37,3.64,7.47
      c-0.22,3.32-1.13,6.53-2.94,9.37c-2.25,3.52-5.61,4.73-9.47,3.54C598.88,467.77,598.78,464.57,598.89,461.47z"/>
    <path class="st0" d="M564.38,444.26c0.1,0,0.23-0.03,0.28,0.01c0.08,0.07,0.16,0.23,0.13,0.31c-0.18,0.43-0.4,0.42-0.56-0.02
      C564.21,444.49,564.33,444.36,564.38,444.26z"/>
  </g>
  </svg>
